<svg
    xmlns="http://www.w3.org/2000/svg"
    viewBox="0 0 512 512"
    xml:space="preserve"
    class="mr-2"
    height="1.5rem"
    width="1.5rem"
>
    <path
        class="fill-[#fc6d27] dark:fill-[#67eba2]"
        d="M511.1 280.2 441.9 44.7v-.1c-4.8-14.5-16.3-23.2-30.7-23.2-14.9 0-27 8.6-31.6 22.3l-45.3 135.2H177.6L132.3 43.8c-4.6-13.8-16.7-22.3-31.6-22.3-14.7 0-27 9.4-30.7 23.2L.9 280.2c-2.8 9.3.8 19.9 8.6 25.8l234 175.5c1.7 2.3 3.9 4 6.6 5l5.5 4.1 5.4-4.1c3.1-1.1 5.7-3 7.6-5.7l233.9-174.9c7.8-5.8 11.3-16.4 8.6-25.7zm-103-227.9c.6-1.1 1.8-1.2 2.2-1.2.7 0 1.6.2 2.2 1.9l37.7 126.9h-84.8l42.7-127.6zM98.6 53c.6-1.7 1.5-1.8 2.2-1.8 1.7 0 1.8.1 2.2 1.1L145.6 180H61.9L98.6 53zm-67 231.3 17.9-61.8L178 394.1 31.6 284.3zm46.9-73.9H156l57.7 180.5L78.5 210.4zm177.9 211.9-68.1-211.9h136.1l-68 211.9zm100.3-211.9h75.9L299 388.7l57.7-178.3zM330.9 397l131.6-175.7 18.7 63L330.9 397z"
    />
</svg>
